<svg width="92" height="93" viewBox="0 0 92 93" fill="none" xmlns="http://www.w3.org/2000/svg">
<path d="M53.469 33.8845C52.6081 34.5297 52.0699 35.5166 51.9939 36.5897C51.918 37.662 52.3105 38.7152 53.0714 39.476C53.8322 40.236 54.8846 40.6293 55.9576 40.5534C57.0308 40.4766 58.0176 39.9383 58.6628 39.0783L62.6206 35.1205L62.6197 35.1214C63.34 34.1604 63.5514 32.9104 63.1865 31.7667C62.8207 30.6229 61.9245 29.7266 60.7805 29.3608C59.6367 28.9959 58.3867 29.2063 57.4258 29.9266L53.469 33.8845Z" fill="#ABABAB"/>
<path d="M50.3773 16.5713L41.7209 25.2277H41.7201C40.86 25.8729 40.3217 26.8598 40.2458 27.932C40.1699 29.0051 40.5624 30.0584 41.3232 30.8183C42.0832 31.5791 43.1365 31.9725 44.2095 31.8957C45.2818 31.8198 46.2686 31.2815 46.9147 30.4215L55.5712 21.7651C56.2914 20.8041 56.5028 19.5541 56.137 18.4104C55.7722 17.2665 54.875 16.3703 53.7311 16.0044C52.5872 15.6395 51.3372 15.85 50.3771 16.5712L50.3773 16.5713Z" fill="#ABABAB"/>
<path d="M65.341 1.6076L59.7762 7.04914C58.9162 7.6944 58.3779 8.68123 58.3011 9.75435C58.2252 10.8266 58.6186 11.8799 59.3785 12.6406C60.1394 13.4006 61.1926 13.794 62.2648 13.7172C63.3379 13.6413 64.3248 13.103 64.97 12.243L70.5348 6.67819C71.3957 6.03294 71.9331 5.0461 72.0099 3.97299C72.0858 2.89987 71.6933 1.84747 70.9325 1.0867C70.1716 0.325869 69.1192 -0.0666393 68.0462 0.00928299C66.9731 0.0852053 65.9862 0.623462 65.341 1.48438V1.6076Z" fill="#ABABAB"/>
<path d="M70.7823 16.5712L66.0828 21.2708V21.2699C65.2227 21.9152 64.6845 22.902 64.6086 23.9751C64.5318 25.0482 64.9251 26.1006 65.686 26.8614C66.4459 27.6222 67.4992 28.0148 68.5723 27.9388C69.6445 27.8621 70.6313 27.3246 71.2766 26.4637L75.9761 21.7642V21.7651C76.6964 20.8041 76.9078 19.5541 76.542 18.4104C76.1771 17.2665 75.2808 16.3703 74.1369 16.0044C72.9931 15.6395 71.7432 15.8501 70.7823 16.5712Z" fill="#ABABAB"/>
<path d="M90.9399 22.0126C90.2464 21.3328 89.3139 20.9524 88.3425 20.9524C87.3712 20.9524 86.4395 21.3328 85.746 22.0126L82.6543 25.1042C81.9331 26.0652 81.7226 27.3152 82.0875 28.4589C82.4533 29.6027 83.3496 30.499 84.4935 30.8649C85.6374 31.2297 86.8873 31.0193 87.8482 30.2981L90.9398 27.2065C91.6196 26.5138 92 25.5813 92 24.6099C92 23.6386 91.6197 22.7062 90.9399 22.0126Z" fill="#ABABAB"/>
<path d="M81.5413 5.6889L79.1914 8.03878C78.3314 8.68403 77.7931 9.67087 77.7172 10.7431C77.6413 11.8162 78.0338 12.8695 78.7946 13.6294C79.5546 14.3902 80.6078 14.7836 81.6809 14.7068C82.7531 14.6309 83.7408 14.0926 84.3861 13.2326L86.8592 11.0061C87.5795 10.046 87.7908 8.79604 87.4251 7.65212C87.0602 6.50742 86.1639 5.61114 85.0191 5.24615C83.8752 4.88041 82.6253 5.09174 81.6651 5.81204L81.5413 5.6889Z" fill="#ABABAB"/>
<path d="M19.0898 44.0252C15.1373 47.964 12.9124 53.3132 12.9064 58.8925C12.8995 64.473 15.1113 69.8264 19.0553 73.7738C22.9983 77.7221 28.3493 79.9399 33.9295 79.9399C39.5091 79.9399 44.8598 77.7221 48.8037 73.7738C52.7467 69.8264 54.9585 64.473 54.9526 58.8925C54.9457 53.313 52.7217 47.964 48.7692 44.0252C44.8287 40.0986 39.4925 37.8936 33.9295 37.8936C28.3665 37.8936 23.0303 40.0984 19.0898 44.0252ZM43.5757 68.5111C41.0207 71.0516 37.5615 72.4749 33.9582 72.468C30.3549 72.4612 26.9011 71.0257 24.3555 68.4749C21.81 65.9241 20.3805 62.4685 20.3805 58.8652C20.3805 55.2612 21.8099 51.8054 24.3555 49.2545C26.9011 46.7046 30.3551 45.2683 33.9582 45.2614C37.5613 45.2546 41.0204 46.6779 43.5757 49.2192C46.1429 51.7718 47.5869 55.2437 47.5869 58.8652C47.5869 62.4857 46.1429 65.9576 43.5757 68.5111Z" fill="#ABABAB"/>
<path d="M32.8167 11.9956L9.93846 34.8738C1.3675 43.4448 -1.98055 55.9375 1.15682 67.6454C4.2942 79.3546 13.4398 88.4995 25.1481 91.6367C36.8564 94.7738 49.3492 91.4271 57.9219 82.855L72.1431 68.6339C72.8634 67.6729 73.0747 66.4229 72.709 65.2792C72.3441 64.1353 71.4478 63.2391 70.3039 62.8741C69.16 62.5084 67.9091 62.7197 66.9492 63.44L52.7271 77.5379C46.0339 84.2312 36.2777 86.8456 27.1348 84.3959C17.991 81.946 10.8493 74.8034 8.39936 65.6605C5.94856 56.5167 8.56326 46.7603 15.2564 40.0682L38.0111 17.3135C38.9608 16.3854 39.3429 15.0215 39.0152 13.7345C38.6865 12.4483 37.6962 11.4348 36.4177 11.0759C35.1393 10.717 33.7668 11.0681 32.8162 11.9955L32.8167 11.9956Z" fill="#ABABAB"/>
<path d="M77.584 35.3685C76.8904 34.6888 75.9579 34.3083 74.9865 34.3083C74.0152 34.3083 73.0836 34.6888 72.39 35.3685L61.3837 46.3748C60.5228 47.0201 59.9854 48.0069 59.9086 49.08C59.8327 50.1531 60.2252 51.2055 60.986 51.9663C61.7468 52.7272 62.7992 53.1197 63.8723 53.0437C64.9454 52.9678 65.9322 52.4296 66.5775 51.5686L77.5838 40.5623C78.2635 39.8688 78.644 38.9371 78.644 37.9658C78.644 36.9945 78.2635 36.062 77.5838 35.3683L77.584 35.3685Z" fill="#ABABAB"/>
</svg>
