<svg width="92" height="104" viewBox="0 0 92 104" fill="none" xmlns="http://www.w3.org/2000/svg">
<path d="M46.0296 0C52.3086 0 57.9206 6.08822 61.7258 15.7919C62.3919 17.5046 62.9623 19.3115 63.5335 21.1193C65.4361 20.7388 67.3386 20.3582 69.1462 20.0727C79.5153 18.5506 87.5061 20.2633 90.6452 25.7804C93.7843 31.2983 91.3113 39.0986 84.8424 47.2794C83.7008 48.7065 82.4643 50.1337 81.1322 51.5601C82.4644 52.9872 83.7009 54.4143 84.8424 55.8407C91.3112 64.0223 93.7849 71.8225 90.6452 77.3397C87.5061 82.7618 79.5153 84.5696 69.1462 83.0474C67.3386 82.7619 65.4361 82.3814 63.5335 81.9059C62.9623 83.8085 62.3919 85.6161 61.7258 87.328C57.9206 97.0316 52.3077 103.12 46.0296 103.12C39.6558 103.12 34.1386 97.0318 30.3334 87.328C29.6673 85.6153 29.0013 83.8085 28.4308 81.9059C26.5283 82.3814 24.7207 82.7619 22.9129 83.0474C12.5439 84.5695 4.55308 82.7619 1.41396 77.3397C-1.82074 71.8218 0.652921 64.0215 7.21675 55.8407C8.3583 54.4136 9.5948 52.9864 10.9269 51.5601C9.59473 50.1329 8.35826 48.7058 7.21675 47.2794C0.652884 39.0978 -1.82074 31.2976 1.41396 25.7804C4.55308 20.2625 12.5439 18.5505 22.9129 20.0727C24.7206 20.3582 26.5283 20.7388 28.4308 21.1193C29.002 19.3116 29.6673 17.5039 30.3334 15.7919C34.1386 6.0884 39.6565 0 46.0296 0ZM64.6744 25.1138C65.721 29.4902 66.482 34.3411 67.0524 39.4786C71.1432 42.4278 74.9484 45.4719 78.1823 48.6111C79.4188 47.2789 80.5604 46.0424 81.6071 44.7109C87.0292 37.8616 89.3125 31.6784 87.0292 27.873C84.841 23.9728 78.3722 22.8313 69.7153 24.1628C68.0983 24.4484 66.3856 24.734 64.6736 25.1145L64.6744 25.1138ZM27.3831 77.9101C26.3365 73.5337 25.4805 68.7776 25.005 63.6403C20.8194 60.691 17.109 57.5521 13.8751 54.5078C12.6386 55.7443 11.497 57.0764 10.4503 58.408C5.02818 65.2573 2.74496 71.4405 4.93242 75.2459C7.21546 79.1461 13.6843 80.1926 22.3413 78.956C23.9584 78.6704 25.6711 78.3849 27.3831 77.9094V77.9101ZM78.1833 54.507C74.9486 57.5511 71.1434 60.6903 67.0533 63.6395C66.4822 68.7768 65.7211 73.5331 64.6753 77.9093C66.388 78.3848 68.1 78.6704 69.717 78.9559C78.374 80.1925 84.8429 79.1466 87.0309 75.2458C89.3139 71.4406 87.0309 65.2574 81.6087 58.4079C80.5621 57.0757 79.4205 55.7442 78.184 54.5077L78.1833 54.507ZM62.4871 66.7787C60.6794 67.9202 58.7769 69.0617 56.7793 70.2034L56.6844 70.2984C54.7818 71.4399 52.8792 72.3915 50.8816 73.4375C54.3063 74.7697 57.541 76.0061 60.6801 76.8622C61.4412 73.7231 62.0123 70.2984 62.4878 66.7781L62.4871 66.7787ZM46.0298 75.8162C41.3687 77.9093 36.8025 79.6213 32.4261 80.8579C32.9972 82.5706 33.5676 84.2826 34.1388 85.8046C37.3735 93.8904 41.5593 98.9329 46.0298 98.9329C50.501 98.9329 54.6868 93.8911 57.9208 85.8046C58.4919 84.2825 59.0623 82.5699 59.5378 80.8579C55.2572 79.6214 50.6909 77.9086 46.0291 75.8162H46.0298ZM13.8762 48.6087C17.1109 45.4696 20.8205 42.4254 25.0061 39.4762C25.4816 34.3389 26.3383 29.4878 27.3842 25.1114C25.6715 24.7308 23.9594 24.4453 22.3425 24.1597C13.6854 22.8275 7.21656 23.9691 4.93353 27.8699C2.74533 31.675 5.02848 37.8583 10.4514 44.7077C11.4981 46.0399 12.6396 47.2764 13.8762 48.6079V48.6087ZM29.5724 36.337C31.38 35.1955 33.2825 33.959 35.1851 32.9123C35.2801 32.8174 35.2801 32.8174 35.3757 32.8174C37.2783 31.6758 39.1809 30.6292 41.0835 29.6782C37.7538 28.2511 34.5197 27.1096 31.38 26.2535C30.6189 29.3926 30.0478 32.7223 29.5723 36.3377L29.5724 36.337ZM46.0296 27.2996C50.6907 25.2064 55.257 23.4944 59.5384 22.2578C59.0629 20.4502 58.4917 18.8331 57.9213 17.3111C54.6866 9.12956 50.5008 4.18286 46.0303 4.18286C41.5591 4.18286 37.3733 9.12956 34.1393 17.3111C33.5682 18.8332 32.9978 20.4503 32.4266 22.2578C36.803 23.4943 41.3691 25.2071 46.0304 27.2996H46.0296ZM60.6801 26.2529C57.5409 27.1089 54.3062 28.2506 50.8815 29.6777C52.8791 30.6293 54.8773 31.7709 56.7799 32.8168L56.8748 32.9118C58.7774 34.0533 60.68 35.1948 62.4876 36.3365C62.0121 32.7212 61.4409 29.3922 60.6799 26.2523L60.6801 26.2529ZM46.0296 31.8657C43.1754 33.1979 40.3219 34.72 37.3726 36.3369C37.3726 36.4319 37.3726 36.4319 37.2776 36.4319C34.4234 38.1446 31.5699 39.8566 29.0012 41.6642C28.7156 44.8989 28.6207 48.133 28.6207 51.5578C28.6207 54.8875 28.7156 58.2172 29.0012 61.3563C31.5699 63.164 34.3285 64.8759 37.1828 66.5886H37.2777V66.6836C40.227 68.3006 43.1761 69.8227 46.0296 71.2498C48.8839 69.9177 51.7374 68.3956 54.5917 66.6836H54.6866C57.6359 64.9709 60.3944 63.164 63.058 61.3563C63.3436 58.2171 63.4386 54.8874 63.4386 51.5577C63.4386 48.133 63.3436 44.8983 63.058 41.6641C60.4894 39.9514 57.7307 38.1446 54.7816 36.5268V36.4319H54.6867C51.8324 34.7192 48.8839 33.1973 46.0296 31.8657ZM24.6264 44.8982C21.7722 47.0864 19.1085 49.2746 16.7304 51.5577C19.1085 53.7459 21.7722 56.0289 24.6264 58.2171C24.5315 56.0289 24.4358 53.8407 24.4358 51.5577C24.4358 49.2746 24.5307 47.0864 24.6264 44.8982ZM31.3809 76.8622C34.52 76.0062 37.7547 74.769 41.0844 73.4374C39.1818 72.3908 37.1842 71.3443 35.2816 70.2028H35.091C33.1884 69.0612 31.3808 67.9197 29.5731 66.778C30.0485 70.2976 30.6198 73.7223 31.3809 76.8622ZM67.4347 58.2175C70.2889 56.0293 72.9526 53.7462 75.2356 51.558C72.9526 49.275 70.2889 47.0868 67.4347 44.8986C67.5296 47.0868 67.6253 49.275 67.6253 51.558C67.6253 53.8411 67.5304 56.0293 67.4347 58.2175ZM46.0315 38.431C49.6468 38.431 52.8808 39.8582 55.2588 42.2362C57.6369 44.6143 59.159 47.944 59.159 51.5593C59.159 55.1746 57.6369 58.4086 55.2588 60.7867C52.8808 63.1647 49.6461 64.6869 46.0315 64.6869C42.4161 64.6869 39.0872 63.1648 36.7084 60.7867C34.3303 58.4086 32.9032 55.1739 32.9032 51.5593C32.9032 47.944 34.3303 44.615 36.7084 42.2362C39.0864 39.8582 42.4161 38.431 46.0315 38.431ZM52.4053 45.1855C50.7883 43.5685 48.5051 42.5218 46.0315 42.5218C43.5578 42.5218 41.2746 43.5684 39.6576 45.1855C38.0407 46.8025 36.994 49.0857 36.994 51.5593C36.994 54.0329 38.0406 56.3162 39.6576 57.9331C41.2747 59.5501 43.5578 60.5018 46.0315 60.5018C48.5051 60.5018 50.7883 59.5501 52.4053 57.9331C54.0223 56.3162 54.9739 54.0329 54.9739 51.5593C54.9739 49.0857 54.0223 46.8025 52.4053 45.1855Z" fill="#ABABAB"/>
</svg>
