<svg width="92" height="85" viewBox="0 0 92 85" fill="none" xmlns="http://www.w3.org/2000/svg">
<path d="M62.2508 24.6292C49.0091 24.6292 31.1215 31.9642 21.8024 41.3113C16.8496 46.2787 15.004 51.1734 16.6043 55.0939C18.2389 59.099 23.1307 61.3045 30.3771 61.3045C43.6188 61.3045 61.5064 53.9694 70.8255 44.6224C75.7783 39.655 77.6239 34.7596 76.0236 30.8398C74.389 26.8347 69.4977 24.6292 62.2508 24.6292ZM68.0541 41.8598C59.4403 50.4996 42.5442 57.3915 30.3769 57.3915C24.9867 57.3915 21.192 55.9799 20.2269 53.6158C19.2737 51.2794 20.858 47.8021 24.5738 44.0751C33.1877 35.4346 50.0837 28.5434 62.251 28.5434C67.6412 28.5434 71.436 29.9551 72.401 32.3192C73.3542 34.6548 71.7699 38.1321 68.0541 41.8598Z" fill="#ABABAB"/>
<path d="M67.38 61.9612C56.6953 69.2907 39.0201 75.3119 24.8598 75.3119C23.7794 75.3119 22.903 76.1883 22.903 77.2688C22.903 78.3492 23.7793 79.2256 24.8598 79.2256C39.7781 79.2256 58.2362 72.9801 69.5948 65.1886C70.4858 64.5771 70.713 63.359 70.1015 62.468C69.49 61.5763 68.2725 61.3499 67.3809 61.9614L67.38 61.9612Z" fill="#ABABAB"/>
<path d="M19.9113 24.588C20.5228 25.4797 21.741 25.7062 22.6319 25.0947C33.3166 17.7651 50.9918 11.7439 65.1539 11.7439C69.7885 11.7439 74.1746 12.3673 78.1901 13.596C79.223 13.9118 80.3174 13.3304 80.6339 12.2975C80.9498 11.2639 80.369 10.1702 79.3354 9.85367C74.9487 8.51119 70.1772 7.83044 65.1544 7.83044C50.2354 7.83044 31.7763 14.0767 20.4194 21.8674C19.527 22.4789 19.3005 23.6971 19.9113 24.588Z" fill="#ABABAB"/>
<path d="M85.6926 23.8295C82.4822 19.3367 76.1253 16.6678 67.575 16.2715C49.6985 15.442 26.2803 24.7053 13.3956 37.7884C10.4158 36.6856 7.16045 38.1399 5.95231 41.0142C5.12836 42.9751 5.42678 45.1814 6.70007 46.8468C4.42048 51.4591 4.02062 55.8473 5.55607 59.6084C7.92798 65.4192 14.5265 68.973 24.1371 69.6152C34.206 70.2889 45.3283 67.6802 54.8227 63.8037C71.6551 56.9327 84.4636 45.6914 87.3725 35.4152C89.2258 35.0134 90.7816 33.7505 91.5356 31.9552C93.2247 27.9368 90.0841 23.5068 85.6941 23.8311L85.6926 23.8295ZM10.6244 41.4761C11.2946 41.2029 12.0319 41.3273 12.5735 41.7529C13.7602 42.6851 13.4813 44.537 12.1032 45.0996C11.0864 45.5147 9.9494 45.0004 9.55241 44.0276C9.1443 43.0261 9.62364 41.8849 10.6244 41.4761ZM53.3431 60.1805C44.1331 63.9404 34.9053 65.7831 27.2374 65.7824C18.1455 65.7817 11.2457 63.1904 9.17884 58.1294C7.90973 55.0195 8.77142 51.6547 10.0077 48.999C12.7968 49.6622 15.6607 48.2163 16.7753 45.5628C17.4958 43.8486 17.3714 41.9162 16.4133 40.302C22.0824 34.6246 30.1331 29.4978 39.2915 25.759C57.5237 18.317 75.9418 18.3386 82.0192 25.4781C79.1351 28.293 79.8976 33.0899 83.4393 34.9006C80.5789 43.7927 68.5727 53.9629 53.3422 60.1798L53.3431 60.1805ZM86.8626 31.4915C85.8996 31.8849 84.7319 31.4495 84.3111 30.4194C83.9037 29.4215 84.374 28.2454 85.4439 27.8491C86.4286 27.4836 87.5321 27.9553 87.9339 28.9407C88.3434 29.9415 87.8634 31.0827 86.8626 31.4915Z" fill="#ABABAB"/>
<path d="M43.5946 36.6821C42.7071 35.7812 41.4743 35.2222 40.113 35.2222C37.0757 35.2222 34.7577 37.9764 35.3001 40.9834C31.5522 43.4412 27.991 46.7483 29.2852 49.9188C30.3977 52.6435 34.1211 52.7995 37.0528 52.5093C40.459 52.1739 44.6673 51.0369 48.9016 49.3078C55.2263 46.7262 65.3853 41.021 63.3426 36.0158C61.1811 30.7206 48.9067 34.4916 43.5952 36.6818L43.5946 36.6821ZM40.113 39.1357C40.6553 39.1357 41.0914 39.5788 41.0914 40.1141C41.0914 40.6536 40.6525 41.0925 40.113 41.0925C39.5735 41.0925 39.1346 40.6536 39.1346 40.1141C39.1346 39.5746 39.5735 39.1357 40.113 39.1357ZM47.4228 45.6852C39.3233 48.9914 34.1608 48.9928 32.9874 48.415C33.2103 47.8559 34.2705 46.34 37.4802 44.2345C38.2406 44.7223 39.1435 45.006 40.1128 45.006C42.7355 45.006 44.8824 42.9311 44.999 40.3363C45.0675 40.3076 45.1367 40.2783 45.2045 40.2503C53.3237 36.9358 58.491 36.9427 59.6481 37.5249C59.2288 38.75 55.5425 42.3707 47.4225 45.6852L47.4228 45.6852Z" fill="#ABABAB"/>
<path d="M11.7408 19.5679C16.0568 19.5679 19.5678 16.0569 19.5678 11.7409C19.5678 7.42481 16.0568 3.91382 11.7408 3.91382C7.42469 3.91382 3.9137 7.42481 3.9137 11.7409C3.9137 16.0569 7.42469 19.5679 11.7408 19.5679ZM11.7408 7.82735C13.8987 7.82735 15.6543 9.58285 15.6543 11.7409C15.6543 13.8989 13.8988 15.6544 11.7408 15.6544C9.58272 15.6544 7.82722 13.8989 7.82722 11.7409C7.82722 9.58285 9.58342 7.82735 11.7408 7.82735Z" fill="#ABABAB"/>
<path d="M81.2057 62.616C77.4292 62.616 74.3571 65.6881 74.3571 69.4646C74.3571 73.2411 77.4292 76.3132 81.2057 76.3132C84.9822 76.3132 88.0543 73.2411 88.0543 69.4646C88.0543 65.6881 84.9822 62.616 81.2057 62.616ZM81.2057 72.3999C79.5872 72.3999 78.2706 71.0833 78.2706 69.4648C78.2706 67.8463 79.5872 66.5297 81.2057 66.5297C82.8242 66.5297 84.1408 67.8463 84.1408 69.4648C84.1408 71.0833 82.8242 72.3999 81.2057 72.3999Z" fill="#ABABAB"/>
<path d="M6.84771 74.3574C4.15019 74.3574 1.95575 76.5519 1.95575 79.2494C1.95575 81.9469 4.15019 84.1413 6.84771 84.1413C9.54522 84.1413 11.7397 81.9469 11.7397 79.2494C11.7397 76.5519 9.54522 74.3574 6.84771 74.3574ZM6.84771 80.2276C6.3082 80.2276 5.86931 79.7888 5.86931 79.2492C5.86931 78.7097 6.30819 78.2708 6.84771 78.2708C7.38721 78.2708 7.8261 78.7097 7.8261 79.2492C7.8261 79.7888 7.38723 80.2276 6.84771 80.2276Z" fill="#ABABAB"/>
<path d="M29.3521 3.91376C29.3521 4.99418 28.4765 5.87062 27.3953 5.87062C26.3148 5.87062 25.4384 4.99427 25.4384 3.91376C25.4384 2.83325 26.3148 1.95691 27.3953 1.95691C28.4764 1.95691 29.3521 2.83325 29.3521 3.91376Z" fill="#ABABAB"/>
<path d="M86.0969 1.95685C86.0969 3.03727 85.2213 3.91371 84.1401 3.91371C83.0597 3.91371 82.1832 3.03736 82.1832 1.95685C82.1832 0.876344 83.0596 0 84.1401 0C85.2212 0 86.0969 0.876344 86.0969 1.95685Z" fill="#ABABAB"/>
<path d="M90.0114 52.8334C90.0114 53.9139 89.1357 54.7903 88.0545 54.7903C86.9741 54.7903 86.0977 53.914 86.0977 52.8334C86.0977 51.7529 86.974 50.8766 88.0545 50.8766C89.1356 50.8766 90.0114 51.7529 90.0114 52.8334Z" fill="#ABABAB"/>
<path d="M68.4874 76.3146C68.4874 77.3951 67.6117 78.2715 66.5305 78.2715C65.4501 78.2715 64.5737 77.3952 64.5737 76.3146C64.5737 75.2341 65.45 74.3578 66.5305 74.3578C67.6116 74.3578 68.4874 75.2341 68.4874 76.3146Z" fill="#ABABAB"/>
<path d="M3.91371 68.4876C3.91371 69.568 3.03806 70.4445 1.95685 70.4445C0.876433 70.4445 0 69.5681 0 68.4876C0 67.4071 0.876344 66.5308 1.95685 66.5308C3.03797 66.5308 3.91371 67.4071 3.91371 68.4876Z" fill="#ABABAB"/>
<path d="M7.82637 27.3951C7.82637 28.4755 6.95072 29.3519 5.86951 29.3519C4.78909 29.3519 3.91266 28.4756 3.91266 27.3951C3.91266 26.3146 4.789 25.4382 5.86951 25.4382C6.95063 25.4382 7.82637 26.3146 7.82637 27.3951Z" fill="#ABABAB"/>
<path d="M76.3145 58.7033C76.3145 59.7837 75.4388 60.6602 74.3576 60.6602C73.2772 60.6602 72.4008 59.7838 72.4008 58.7033C72.4008 57.6228 73.2771 56.7465 74.3576 56.7465C75.4387 56.7465 76.3145 57.6228 76.3145 58.7033Z" fill="#ABABAB"/>
</svg>
