<svg width="92" height="91" viewBox="0 0 92 91" fill="none" xmlns="http://www.w3.org/2000/svg">
<mask id="mask0_34_488" style="mask-type:alpha" maskUnits="userSpaceOnUse" x="0" y="0" width="92" height="91">
<path d="M32.5018 34.8659C31.6841 36.0921 30.2533 36.9099 28.8223 37.0126L20.0324 37.5238C18.8062 37.6257 17.5793 38.1369 16.7614 39.1593L3.47415 53.9793C2.96296 54.4905 3.06562 55.3082 3.5761 55.8187L7.15375 59.2936C7.56227 59.7021 8.27808 59.8048 8.78925 59.4982L19.4185 52.855C19.7251 52.6504 20.0317 52.6504 20.3383 52.855L20.6448 53.0597C21.0533 53.2643 21.156 53.7755 20.9514 54.184L20.0317 55.9214C19.8271 56.228 19.9297 56.6372 20.1336 56.9438L34.5452 71.7638C34.8518 72.0704 35.1583 72.0704 35.5676 71.9684L37.4069 71.1507C38.0201 70.8441 38.6332 71.3553 38.6332 71.9684C38.6332 72.1731 38.6332 72.275 38.5313 72.377L32.092 82.6998C31.7854 83.211 31.8873 83.9261 32.2966 84.3353L35.8742 87.913C36.3854 88.4242 37.1005 88.4242 37.6117 88.0149L52.5345 75.4435C53.6588 74.5238 54.2719 73.1949 54.2719 71.764V63.4853C54.2719 61.8498 55.1916 60.317 56.5205 59.3973C62.9598 55.3094 81.4593 42.124 88.3073 21.2736L70.4215 3.59033C70.4215 3.59033 49.8777 8.90535 32.5023 34.8661L32.5018 34.8659ZM64.5952 33.7415C60.9157 33.7415 57.9521 30.7779 57.9521 27.0984C57.9521 23.4189 60.9157 20.4552 64.5952 20.4552C68.2747 20.4552 71.2384 23.4189 71.2384 27.0984C71.2384 30.7779 68.274 33.7415 64.5952 33.7415Z" fill="black"/>
<path d="M91.0672 0.0132797L72.8741 3.07971L89.1251 19.024L91.9869 0.932971C92.0888 0.421784 91.5784 -0.0893848 91.0672 0.0132797Z" fill="black"/>
<path d="M7.76746 68.9013C7.76746 68.9013 7.76746 68.7993 7.86941 68.5947C7.76746 68.6967 7.76746 68.7993 7.76746 68.9013Z" fill="black"/>
<path d="M19.4192 61.849C10.4247 59.805 8.17593 67.0614 7.86949 68.5949C8.38068 67.6752 11.651 67.164 11.651 67.164C14.7174 67.8798 8.48274 72.1724 8.48274 72.1724C1.02245 78.7138 4.19072 82.8017 4.19072 82.8017C6.4393 79.1222 8.38144 80.2465 8.38144 80.2465C9.30115 86.1746 0 88.7298 0 88.7298C6.84795 94.9645 16.2509 83.2109 16.2509 83.2109C20.6455 83.6194 14.7181 89.3438 14.7181 89.3438C22.4857 88.4241 27.5962 80.4518 27.5962 80.4518C34.2401 66.7554 19.4193 61.8481 19.4193 61.8481L19.4192 61.849Z" fill="black"/>
</mask>
<g mask="url(#mask0_34_488)">
<rect x="-4.3351" y="-3.07532" width="101.296" height="99.7899" fill="#ABABAB"/>
</g>
</svg>
