<svg width="92" height="93" viewBox="0 0 92 93" fill="none" xmlns="http://www.w3.org/2000/svg">
<path d="M45.6767 53.8724C50.1261 53.8724 53.7291 50.2687 53.7291 45.82C53.7291 41.3706 50.1255 37.7676 45.6767 37.7676C41.2273 37.7676 37.6243 41.3712 37.6243 45.82C37.6243 46.9876 37.866 48.1352 38.3691 49.2021C39.6974 52.0404 42.5563 53.8725 45.6768 53.8725L45.6767 53.8724ZM45.6767 41.7927C47.911 41.7927 49.7033 43.6049 49.7033 45.8193C49.7033 48.0337 47.8911 49.8459 45.6767 49.8459C44.1062 49.8459 42.6771 48.9199 42.0127 47.5108C41.7711 46.987 41.6503 46.4036 41.6503 45.8195C41.6503 43.6051 43.4625 41.7929 45.6769 41.7929L45.6767 41.7927Z" fill="#ABABAB"/>
<path d="M89.8268 2.55679C88.0551 0.785062 84.6732 -0.986502 78.6738 0.644409C74.0837 1.89233 68.8696 4.89195 63.1724 9.54253C57.898 6.98562 51.959 5.55656 45.7183 5.55656C23.5133 5.55656 5.4555 23.6144 5.4555 45.8194C5.4555 51.7383 6.70342 57.4356 9.18008 62.7701C9.2604 62.9513 9.34137 63.1126 9.44161 63.2938C0.160514 75.1106 -2.47668 85.0563 2.41474 89.9487C3.88437 91.3984 5.91756 92.1226 8.47448 92.1226C12.7426 92.1226 18.4797 90.1293 25.486 86.1432C27.117 85.2172 28.7877 84.2102 30.499 83.1031C35.2903 85.0559 40.4439 86.0828 45.6985 86.0828C67.9036 86.0828 85.9828 68.025 85.9828 45.82C85.9828 40.4446 84.916 35.2909 83.0031 30.6005C84.0903 28.9093 85.1173 27.2384 86.0226 25.6075C92.3843 14.3941 93.6933 6.42278 89.8281 2.55689L89.8268 2.55679ZM45.6981 9.58235C60.1123 9.58235 72.5751 18.0376 78.4117 30.2377C72.7748 38.6127 65.1447 47.7115 56.3679 56.5093C47.6106 65.2865 38.5108 72.8969 30.1358 78.5334C22.647 74.9702 16.4259 68.8699 12.8216 61.0793C10.5873 56.288 9.45941 51.1543 9.45941 45.8194C9.45941 25.8286 25.7063 9.58202 45.6968 9.58202L45.6981 9.58235ZM23.4931 82.6608C12.8234 88.7006 7.08559 88.9217 5.27405 87.1102C2.27445 84.0907 4.79081 76.2188 11.5555 67.1589C14.6561 72.1314 18.8029 76.3796 23.7553 79.5804C24.5605 80.1042 25.3862 80.5867 26.2114 81.0501C25.2847 81.613 24.3786 82.1566 23.4932 82.6604L23.4931 82.6608ZM81.9355 45.8197C81.9355 65.8105 65.6892 82.0571 45.6981 82.0571C41.8932 82.0571 38.1687 81.453 34.6459 80.3054C42.5981 74.729 51.0534 67.5215 59.2264 59.349C67.3997 51.1757 74.627 42.6994 80.2042 34.7471C81.332 38.2301 81.9359 41.9545 81.9359 45.8199L81.9355 45.8197ZM66.9975 11.6551C77.808 3.21975 84.4713 2.93828 86.9685 5.41409C88.7807 7.22629 88.5789 12.9634 82.5191 23.6331C82.016 24.5186 81.4922 25.4049 80.9287 26.3108C77.6071 20.332 72.7953 15.2586 66.9977 11.655L66.9975 11.6551Z" fill="#ABABAB"/>
</svg>
