<svg width="96" height="93" viewBox="0 0 96 93" fill="none" xmlns="http://www.w3.org/2000/svg">
<path d="M95.1917 17.0576C92.4664 16.3507 90.3472 14.2315 89.7418 11.5062C89.6411 11.1028 89.3384 10.7993 88.9342 10.7993C88.5308 10.7993 88.2274 11.1021 88.1267 11.5062C87.4198 14.2315 85.4014 16.3507 82.5753 17.0576C82.1719 17.1583 81.8684 17.461 81.8684 17.8651C81.8684 18.2686 82.1712 18.572 82.5753 18.6727C85.3006 19.2782 87.4198 21.4988 88.1267 24.1226C88.2274 24.526 88.5301 24.8295 88.9342 24.8295C89.3376 24.8295 89.6411 24.5267 89.7418 24.1226C90.3472 21.3973 92.5679 19.2781 95.2932 18.5712C95.6966 18.4705 96 18.1678 96 17.7637C95.8987 17.5623 95.5958 17.159 95.1917 17.0576Z" fill="#ABABAB"/>
<path d="M61.8843 26.2423C64.3068 26.8478 66.224 28.7656 66.8301 31.1882C66.9308 31.4909 67.2335 31.7936 67.537 31.7936C67.9404 31.7936 68.2438 31.5916 68.2438 31.1882C68.8493 28.7656 70.7671 26.8485 73.1897 26.2423C73.4924 26.1417 73.7951 25.8389 73.7951 25.4348C73.7951 25.0314 73.5931 24.7279 73.1897 24.7279C70.7671 24.1225 68.85 22.2047 68.2438 19.7821C68.1432 19.4794 67.8404 19.1766 67.537 19.1766C67.1336 19.1766 66.8301 19.3787 66.8301 19.7821C66.2246 22.2047 64.3068 24.1218 61.8843 24.7279C61.5815 24.8286 61.2788 25.1314 61.2788 25.4348C61.2788 25.8389 61.5815 26.1417 61.8843 26.2423Z" fill="#ABABAB"/>
<path d="M68.0411 6.35888C70.2616 6.86368 71.9775 8.68012 72.5829 10.9006C72.6835 11.2034 72.9863 11.4054 73.2897 11.4054C73.5925 11.4054 73.8952 11.2034 73.9966 10.9006C74.5014 8.68012 76.3178 6.96429 78.4377 6.35888C78.7405 6.2582 78.9426 5.95546 78.9426 5.65202C78.9426 5.34928 78.7405 5.04654 78.4377 4.94516C76.2173 4.44035 74.5014 2.72466 73.9966 0.40342C73.7938 0.202061 73.4911 0 73.1883 0C72.8856 0 72.5829 0.202061 72.4815 0.504802C71.9767 2.72529 70.261 4.44113 68.0403 5.04654C67.7376 5.14722 67.5355 5.44996 67.5355 5.7534C67.4348 6.05614 67.637 6.2582 68.0411 6.35888Z" fill="#ABABAB"/>
<path d="M46.7445 14.5343C48.965 15.0391 50.6809 16.8556 51.2863 18.9755C51.387 19.2783 51.6897 19.4803 51.9931 19.4803C52.2959 19.4803 52.5986 19.2783 52.7 18.9755C53.2048 16.755 55.0212 15.0392 57.1412 14.4338C57.4439 14.3331 57.646 14.0304 57.646 13.7269C57.646 13.4242 57.4439 13.1214 57.1412 13.02C54.9207 12.5152 53.2048 10.7996 52.7 8.47831C52.5993 8.17557 52.2966 7.97351 51.9931 7.97351C51.6904 7.97351 51.3877 8.17557 51.2863 8.47831C50.7815 10.6988 49.0658 12.4146 46.8451 13.02C46.5424 13.1207 46.3403 13.4235 46.3403 13.7269C46.2396 14.2317 46.4418 14.5343 46.7445 14.5343Z" fill="#ABABAB"/>
<path d="M86.7134 34.7206C86.4107 33.913 85.6031 33.5096 84.7955 33.8123L79.2449 35.6287C78.4373 35.9315 78.0339 36.739 78.3366 37.5466L78.7401 38.8589L50.6811 48.2452C49.8736 48.548 49.4701 49.3555 49.7729 50.1631L49.9749 50.7686L46.442 51.9795L44.4235 45.8227C44.2215 45.2172 43.5153 44.9145 42.9099 45.1158L41.5968 45.4193C40.9913 45.6214 40.6886 46.3275 40.8899 46.933L42.9084 53.0898L40.0823 53.998C39.6789 54.0987 39.4768 54.6035 39.5775 55.0076L40.9905 59.146C41.0912 59.5494 41.596 59.7515 42.0001 59.6508L51.7905 56.3201L51.9925 56.9255C52.2953 57.7331 53.1028 58.1365 53.9104 57.8338L60.4706 55.6133L52.8 90.0309C52.4972 91.2419 53.3048 92.4534 54.5157 92.7562C55.7267 93.059 56.9383 92.2514 57.2411 91.0405L60.1677 78.0207H68.9486L71.8752 91.0405C72.0773 92.1508 73.0862 92.8569 74.0957 92.8569C74.2978 92.8569 74.3985 92.8569 74.6005 92.7562C75.8115 92.4535 76.619 91.2425 76.3163 90.0309L68.1417 53.09L82.0704 48.4467L82.4739 49.7591C82.7766 50.5666 83.5841 50.97 84.3917 50.6673L89.9431 48.8509C90.7507 48.5482 91.1541 47.7406 90.8514 46.933L86.7134 34.7206ZM61.2787 73.3773L64.6094 58.3383L67.9402 73.3773H61.2787Z" fill="#ABABAB"/>
<path d="M40.0831 40.07L50.8831 36.2345C52.801 35.5276 53.9112 33.4084 53.2043 31.3899C52.4975 29.3715 50.3783 28.3618 48.3598 29.0687L37.9639 32.7022C36.1475 32.9043 28.4761 33.7118 22.1173 33.7118C7.58296 33.7118 0.921664 43.4016 0.618869 43.805C-0.188673 45.0159 -0.188673 46.631 0.518191 47.8419L6.37222 57.5316C7.07908 58.7426 8.2901 59.3481 9.60239 59.3481C10.3092 59.3481 10.9147 59.146 11.5203 58.8432C12.2271 58.4398 12.7312 57.8336 13.0339 57.1275L12.7312 88.6181C12.7312 90.9394 14.5476 92.8572 16.8696 92.8572C19.1908 92.8572 21.0079 91.0408 21.0079 88.7189L21.3107 62.1739H23.0264L27.7702 74.1849L27.8709 88.7192C27.8709 91.0405 29.7888 92.8576 32.0093 92.8576C34.3305 92.8576 36.1476 90.9397 36.1476 88.6185L36.047 73.2767C36.047 72.7719 35.9463 72.2671 35.7442 71.763L31.0004 59.752L30.8998 40.8778C35.3409 40.5751 38.873 40.171 39.075 40.171C39.4777 40.2723 39.7805 40.1717 40.0832 40.0703L40.0831 40.07ZM12.8316 53.6961L8.39041 46.4291C9.40002 45.4195 11.0145 44.2086 13.1342 43.1989L13.0335 54.2003C13.0328 53.9989 12.9323 53.8982 12.8316 53.6961Z" fill="#ABABAB"/>
<path d="M22.1173 31.8944C26.659 31.8944 30.394 28.1601 30.394 23.6177C30.394 19.0759 26.6597 15.3409 22.1173 15.3409C17.5755 15.3409 13.8405 19.0752 13.8405 23.6177C13.8405 28.1601 17.5755 31.8944 22.1173 31.8944Z" fill="#ABABAB"/>
</svg>
